<mxfile host="app.diagrams.net" agent="Mozilla/5.0 (X11; Linux x86_64) AppleWebKit/537.36 (KHTML, like Gecko) Chrome/131.0.0.0 Safari/537.36" version="26.0.10">
  <diagram name="Page-1" id="K4-uMQUCCdzaDDjiR1Aa">
    <mxGraphModel dx="1183" dy="654" grid="1" gridSize="10" guides="1" tooltips="1" connect="1" arrows="1" fold="1" page="1" pageScale="1" pageWidth="827" pageHeight="1169" math="0" shadow="0">
      <root>
        <mxCell id="0" />
        <mxCell id="1" parent="0" />
        <mxCell id="S0pkvh6AxldaCvJyQXTE-1" value="" style="rounded=0;whiteSpace=wrap;html=1;direction=south;dashed=1;" vertex="1" parent="1">
          <mxGeometry x="270" y="156" width="340" height="570" as="geometry" />
        </mxCell>
      </root>
    </mxGraphModel>
  </diagram>
</mxfile>
